<svg xmlns="http://www.w3.org/2000/svg" width="396.55" height="150" viewBox="0 0 396.55 150"><title>Artboard 1</title><path d="M38.38,88.05c-3.13-4-5.83-7.41-11.42-7.26-4.27.11-10,2.39-17.56,6.89l3.65,9.8c4.87-3.11,8.74-4.64,12-4.73,4.64-.12,7.73,2.52,11.65,5.86,6.57,5.61,15.58,13.3,38.43,12.68.71,0,1.44-.06,2.17-.1l3.14-17.05c-8.33,3-15.28,4.51-21.07,4.66C47.11,99.15,42.47,93.26,38.38,88.05Z"/><path d="M59.52,85.89C54.47,86,51.4,83.25,47.84,80c-4.6-4.16-9.82-8.87-21.1-8.56-6,.16-13.15,1.77-21.59,4.8L8.4,85c7.93-4.44,14.11-6.69,18.83-6.82,6.76-.18,9.88,3.81,13.2,8,3.84,4.9,7.81,10,18,9.69h0c6-.16,13.52-2.18,22.83-6.11L84.4,72.58C73.13,81.56,65.31,85.73,59.52,85.89Z"/><path d="M60.48,67.12c-3.85.1-7.72-.71-12.21-1.66A98.72,98.72,0,0,0,23.35,62.8,122.71,122.71,0,0,0,1.17,65.63l3,8.11c8.44-2.78,15.68-4.26,22-4.43,12.41-.34,18.53,4.52,23.44,8.42,3.44,2.72,6.4,5.07,10.64,5h0c5.64-.15,13.5-4.83,25.06-15l3.46-18.79C75.28,63.62,67.77,66.92,60.48,67.12Z"/><path d="M37.11,102.51c-4.32-3.22-7.73-5.76-12.38-5.64-3,.08-6.38,1.28-10.53,3.65l.07.19a18.19,18.19,0,0,0,9.94,9.6l42.91,14.31a6.48,6.48,0,0,0,8.65-5.11l.76-4.15C54.16,115.2,44.35,107.91,37.11,102.51Z"/><path d="M86.31,25.42,5,54a7.51,7.51,0,0,0-4.74,9.1,138.11,138.11,0,0,1,24.17-3A138.94,138.94,0,0,1,46.1,61.46a84.46,84.46,0,0,0,12,.88h0C67,62.1,75.37,58.69,89.84,43l2.31-12.58C92.92,26.26,90.29,24,86.31,25.42Z"/><path d="M109.2,90.9V86.16a35.69,35.69,0,0,0,11.09,1.78q7.44,0,7.44-4.44,0-4.15-5.19-4.15h-4.45Q108,79.34,108,70.15q0-8.89,13-8.89A42.19,42.19,0,0,1,132,62.74v4.74A35.61,35.61,0,0,0,121,65.71q-7.77,0-7.77,4.44,0,4.15,4.89,4.15h4.45q10.67,0,10.67,9.19,0,8.89-12.92,8.89A42.22,42.22,0,0,1,109.2,90.9Z"/><path d="M139.13,83q0-9.57,12.63-9.57a56.19,56.19,0,0,1,8.12.59V71.07q0-5.36-8.39-5.36a34.75,34.75,0,0,0-9.84,1.48V62.74a34.78,34.78,0,0,1,9.84-1.48q13.87,0,13.87,9.66V92.39h-3.08l-1.9-3.08a18,18,0,0,1-10.14,3.08Q139.13,92.38,139.13,83Zm12.63-5.13q-7.14,0-7.14,5t5.63,5a15.37,15.37,0,0,0,9.63-3V78.45A56.33,56.33,0,0,0,151.76,77.86Z"/><path d="M174.25,92.39V61.26H178l1,4a16.05,16.05,0,0,1,10.49-4q11.65,0,11.65,11.59V92.39h-5.48V72.76q0-6.94-6.91-6.94-4.71,0-9,3.94V92.38Z"/><path d="M236.35,90.52a45,45,0,0,1-14,1.87q-13.9,0-13.9-16.18,0-14.94,14.76-14.94a19.75,19.75,0,0,1,7.62,1.48V50h5.48Zm-5.48-22.91a17.28,17.28,0,0,0-7.59-1.6q-9.4,0-9.4,10,0,11.82,9.4,11.82a23.07,23.07,0,0,0,7.59-1.16Z"/><path d="M244.94,90.9V86.16A35.69,35.69,0,0,0,256,87.94q7.44,0,7.44-4.44,0-4.15-5.19-4.15h-4.44q-10.08,0-10.08-9.19,0-8.89,13-8.89a42.21,42.21,0,0,1,11.05,1.48v4.74a35.62,35.62,0,0,0-11.05-1.78q-7.77,0-7.77,4.44,0,4.15,4.89,4.15h4.44q10.67,0,10.67,9.19,0,8.89-12.92,8.89A42.21,42.21,0,0,1,244.94,90.9Z"/><path d="M276.36,56.22h3.44l1.18,5h8.42v4.45h-7.56V83.58q0,4.35,3.77,4.36h3.79v4.45h-5.22q-7.83,0-7.83-8.39Z"/><path d="M294.88,76.82q0-15.56,14.82-15.56t14.82,15.56q0,15.53-14.82,15.53T294.88,76.82ZM309.7,87.94q9.34,0,9.34-11.23,0-11-9.34-11t-9.34,11Q300.37,87.93,309.7,87.94Z"/><path d="M331.93,92.39V61.26h3.7l1,4a13.63,13.63,0,0,1,9.84-4v4.56a11.47,11.47,0,0,0-9,3.94V92.38Z"/><path d="M351.94,92.39V61.26h3.7l.92,3.91a14.52,14.52,0,0,1,9.75-3.91q6.76,0,9.22,4.27,5.07-4.27,10.28-4.27,10.73,0,10.73,11.83V92.38h-5.48V72.79q0-7-5.87-7-4.38,0-8.21,4V92.38H371.5V72.88q0-7.05-5.81-7.06a10.93,10.93,0,0,0-8.27,4V92.38Z"/></svg>